<svg width="16" height="18" viewBox="0 0 16 18" fill="none" xmlns="http://www.w3.org/2000/svg">
<path d="M14.3796 7.56481C14.3796 11.1697 11.2274 14.4244 9.21067 16.1377C8.24971 16.9541 6.87991 16.9541 5.91895 16.1377C3.90225 14.4243 0.75 11.1697 0.75 7.56481C0.75 5.75741 1.46799 4.02404 2.74601 2.74601C4.02404 1.46799 5.75741 0.75 7.56481 0.75C9.37221 0.75 11.1056 1.46799 12.3836 2.74601C13.6616 4.02404 14.3796 5.75741 14.3796 7.56481Z" stroke="black" stroke-width="1.5" stroke-linecap="round" stroke-linejoin="round"/>
<path d="M7.56481 9.83642C8.81938 9.83642 9.83642 8.81938 9.83642 7.56481C9.83642 6.31024 8.81938 5.29321 7.56481 5.29321C6.31024 5.29321 5.29321 6.31024 5.29321 7.56481C5.29321 8.81938 6.31024 9.83642 7.56481 9.83642Z" stroke="black" stroke-width="1.5" stroke-linecap="round" stroke-linejoin="round"/>
</svg>
