<svg width="327" height="18" viewBox="0 0 327 18" fill="none" xmlns="http://www.w3.org/2000/svg">
<path d="M8.75 0.5H9.25C13.8063 0.5 17.5 4.19365 17.5 8.75C17.5 13.3063 13.8063 17 9.25 17H8.75C4.19365 17 0.5 13.3063 0.5 8.75C0.5 4.19365 4.19365 0.5 8.75 0.5Z" fill="#0D5BE3"/>
<path d="M8.75 0.5H9.25C13.8063 0.5 17.5 4.19365 17.5 8.75C17.5 13.3063 13.8063 17 9.25 17H8.75C4.19365 17 0.5 13.3063 0.5 8.75C0.5 4.19365 4.19365 0.5 8.75 0.5Z" stroke="#0D5BE3"/>
<path d="M8.73438 11.5V6.76953H8.67188L7.25391 7.77734V6.91797L8.73828 5.86328H9.61719V11.5H8.73438Z" fill="#F9F9F9"/>
<path d="M23.9204 10.6118C23.6069 10.6118 23.3418 10.5518 23.125 10.4316C22.9111 10.3086 22.75 10.1372 22.6416 9.91748C22.5332 9.69775 22.479 9.44287 22.479 9.15283C22.479 8.9126 22.5288 8.68848 22.6284 8.48047C22.731 8.27246 22.8877 8.0791 23.0986 7.90039C23.3125 7.72168 23.5864 7.55615 23.9204 7.40381C24.2544 7.25146 24.6558 7.11084 25.1245 6.98193V8.02344C24.8491 8.09668 24.5928 8.17139 24.3555 8.24756C24.1211 8.3208 23.916 8.39697 23.7402 8.47607C23.5645 8.55518 23.4268 8.64014 23.3271 8.73096C23.2305 8.81885 23.1821 8.9126 23.1821 9.01221C23.1821 9.11475 23.248 9.19971 23.3799 9.26709C23.5117 9.33447 23.6963 9.36816 23.9336 9.36816C24.1533 9.36816 24.3569 9.34033 24.5444 9.28467C24.7319 9.229 24.8887 9.15576 25.0146 9.06494L25.2212 9.79004C25.0747 10.0303 24.8945 10.228 24.6807 10.3833C24.4697 10.5356 24.2163 10.6118 23.9204 10.6118ZM26.856 11.3237C26.1411 11.3237 25.624 11.1743 25.3047 10.8755C24.9883 10.5767 24.8301 10.0713 24.8301 9.35938V6.70508L25.8232 6.50732V8.97266C25.8232 9.2041 25.8496 9.38721 25.9023 9.52197C25.958 9.65674 26.0679 9.75342 26.2319 9.81201C26.3989 9.86768 26.6494 9.89551 26.9834 9.89551L26.856 11.3237ZM26.8604 11.3237C26.7988 11.3237 26.752 11.3062 26.7197 11.271C26.6875 11.2329 26.6743 11.1831 26.6802 11.1216L26.79 10.0977C26.8076 9.96289 26.8721 9.89551 26.9834 9.89551C27.0449 9.89551 27.0918 9.91455 27.124 9.95264C27.1562 9.99072 27.1694 10.0391 27.1636 10.0977L27.0493 11.1216C27.0376 11.2563 26.9746 11.3237 26.8604 11.3237ZM24.5137 5.14941L23.8413 5.82617L23.1733 5.14941L23.8413 4.47266L24.5137 5.14941ZM25.9287 5.14941L25.2563 5.82617L24.5884 5.14941L25.2563 4.47266L25.9287 5.14941ZM28.5654 12.4795L27.8975 13.1519L27.2295 12.4795L27.8975 11.8027L28.5654 12.4795ZM29.9805 12.4795L29.3081 13.1519L28.6401 12.4795L29.3081 11.8027L29.9805 12.4795ZM28.9961 8.00586V9.03418C28.9961 9.27441 29.0415 9.45605 29.1323 9.5791C29.2261 9.70215 29.3638 9.78564 29.5454 9.82959C29.7271 9.87354 29.9497 9.89551 30.2134 9.89551L30.0903 11.3237C29.812 11.3237 29.5498 11.2842 29.3037 11.2051C29.0605 11.126 28.8569 10.9897 28.6929 10.7964C28.5317 10.6001 28.4292 10.3291 28.3853 9.9834L28.6533 10.0054C28.6123 10.3569 28.5186 10.6279 28.3721 10.8184C28.2256 11.0088 28.0264 11.1406 27.7744 11.2139C27.5254 11.2871 27.2207 11.3237 26.8604 11.3237L26.9834 9.89551C27.25 9.89551 27.4741 9.87354 27.6558 9.82959C27.8374 9.78564 27.9736 9.70215 28.0645 9.5791C28.1582 9.45605 28.2051 9.27441 28.2051 9.03418V8.00586H28.9961ZM30.0903 11.3237C30.0288 11.3237 29.9819 11.3062 29.9497 11.271C29.9204 11.2329 29.9087 11.1831 29.9146 11.1216L30.0244 10.0977C30.0391 9.96289 30.1021 9.89551 30.2134 9.89551C30.2749 9.89551 30.3218 9.91455 30.354 9.95264C30.3862 9.99072 30.3994 10.0391 30.3936 10.0977L30.2837 11.1216C30.269 11.2563 30.2046 11.3237 30.0903 11.3237ZM26.8604 11.3237C26.7988 11.3237 26.752 11.3062 26.7197 11.271C26.6875 11.2329 26.6743 11.1831 26.6802 11.1216L26.79 10.0977C26.8076 9.96289 26.8721 9.89551 26.9834 9.89551C27.0449 9.89551 27.0918 9.91455 27.124 9.95264C27.1562 9.99072 27.168 10.0391 27.1592 10.0977L27.0537 11.1216C27.0391 11.2563 26.9746 11.3237 26.8604 11.3237ZM36.4536 8.08057C36.5298 8.32959 36.5884 8.57275 36.6294 8.81006C36.6704 9.04443 36.6909 9.27148 36.6909 9.49121C36.6851 9.79883 36.6455 10.0698 36.5723 10.3042C36.502 10.5356 36.3994 10.729 36.2646 10.8843C36.0127 11.1772 35.6392 11.3237 35.144 11.3237C34.7778 11.3237 34.4907 11.2373 34.2827 11.0645C34.0776 10.8916 33.9385 10.6396 33.8652 10.3086L34.1992 10.3218C34.1348 10.6382 33.9854 10.8843 33.751 11.0601C33.5195 11.2358 33.2163 11.3237 32.8413 11.3237C32.4282 11.3237 32.1133 11.2402 31.8965 11.0732C31.6797 10.9062 31.5464 10.6748 31.4966 10.3789L31.7383 10.3921C31.6533 10.6968 31.4937 10.9282 31.2593 11.0864C31.0249 11.2446 30.6367 11.3237 30.0947 11.3237L30.2178 9.89551C30.5283 9.89551 30.7715 9.875 30.9473 9.83398C31.123 9.79004 31.2461 9.71826 31.3164 9.61865C31.3896 9.51611 31.4263 9.37695 31.4263 9.20117V8.55078H32.1909V9.20117C32.1909 9.44727 32.248 9.62451 32.3623 9.73291C32.4795 9.83838 32.6655 9.89111 32.9204 9.89111C33.1782 9.89111 33.3628 9.83838 33.4741 9.73291C33.5884 9.62451 33.6455 9.44727 33.6455 9.20117V8.55078H34.4102V9.20117C34.4102 9.46484 34.4629 9.65527 34.5684 9.77246C34.6738 9.88965 34.8877 9.94824 35.21 9.94824C35.4268 9.94824 35.604 9.92188 35.7417 9.86914C35.8823 9.81348 35.9526 9.71533 35.9526 9.57471C35.9526 9.45459 35.916 9.29346 35.8428 9.09131C35.7725 8.88916 35.6729 8.6665 35.5439 8.42334L36.4536 8.08057ZM30.2178 9.89551C30.2793 9.89551 30.3262 9.91455 30.3584 9.95264C30.3906 9.98779 30.4023 10.0361 30.3936 10.0977L30.2881 11.1216C30.2734 11.2563 30.209 11.3237 30.0947 11.3237C30.0332 11.3237 29.9863 11.3062 29.9541 11.271C29.9219 11.2329 29.9087 11.1831 29.9146 11.1216L30.0244 10.0977C30.0391 9.96289 30.1035 9.89551 30.2178 9.89551ZM39.9824 11.3237C39.5049 11.3237 39.1182 11.2593 38.8223 11.1304C38.5264 10.9985 38.3081 10.7891 38.1675 10.502C38.0298 10.2148 37.9609 9.83398 37.9609 9.35938V4.94287L38.9629 4.65283V8.97266C38.9629 9.2041 38.9893 9.38721 39.042 9.52197C39.0947 9.65674 39.2031 9.75342 39.3672 9.81201C39.5312 9.86768 39.7773 9.89551 40.1055 9.89551L39.9824 11.3237ZM39.9824 11.3237C39.9209 11.3237 39.874 11.3062 39.8418 11.271C39.8125 11.2329 39.8008 11.1831 39.8066 11.1216L39.9165 10.0977C39.9312 9.96289 39.9941 9.89551 40.1055 9.89551C40.167 9.89551 40.2139 9.91455 40.2461 9.95264C40.2783 9.99072 40.2915 10.0391 40.2856 10.0977L40.1758 11.1216C40.1611 11.2563 40.0967 11.3237 39.9824 11.3237ZM46.3413 8.08057C46.4175 8.32959 46.4761 8.57275 46.5171 8.81006C46.5581 9.04443 46.5786 9.27148 46.5786 9.49121C46.5728 9.79883 46.5332 10.0698 46.46 10.3042C46.3896 10.5356 46.2871 10.729 46.1523 10.8843C45.9004 11.1772 45.5269 11.3237 45.0317 11.3237C44.6655 11.3237 44.3784 11.2373 44.1704 11.0645C43.9653 10.8916 43.8262 10.6396 43.7529 10.3086L44.0869 10.3218C44.0225 10.6382 43.873 10.8843 43.6387 11.0601C43.4072 11.2358 43.104 11.3237 42.729 11.3237C42.3159 11.3237 42.001 11.2402 41.7842 11.0732C41.5674 10.9062 41.4341 10.6748 41.3843 10.3789L41.626 10.3921C41.541 10.6968 41.3813 10.9282 41.147 11.0864C40.9126 11.2446 40.5244 11.3237 39.9824 11.3237L40.1055 9.89551C40.416 9.89551 40.6592 9.875 40.835 9.83398C41.0107 9.79004 41.1338 9.71826 41.2041 9.61865C41.2773 9.51611 41.314 9.37695 41.314 9.20117V8.55078H42.0786V9.20117C42.0786 9.44727 42.1357 9.62451 42.25 9.73291C42.3672 9.83838 42.5532 9.89111 42.8081 9.89111C43.0659 9.89111 43.2505 9.83838 43.3618 9.73291C43.4761 9.62451 43.5332 9.44727 43.5332 9.20117V8.55078H44.2979V9.20117C44.2979 9.46484 44.3506 9.65527 44.4561 9.77246C44.5615 9.88965 44.7754 9.94824 45.0977 9.94824C45.3145 9.94824 45.4917 9.92188 45.6294 9.86914C45.77 9.81348 45.8403 9.71533 45.8403 9.57471C45.8403 9.45459 45.8037 9.29346 45.7305 9.09131C45.6602 8.88916 45.5605 8.6665 45.4316 8.42334L46.3413 8.08057ZM40.1055 9.89551C40.167 9.89551 40.2139 9.91455 40.2461 9.95264C40.2783 9.98779 40.29 10.0361 40.2812 10.0977L40.1758 11.1216C40.1611 11.2563 40.0967 11.3237 39.9824 11.3237C39.9209 11.3237 39.874 11.3062 39.8418 11.271C39.8096 11.2329 39.7964 11.1831 39.8022 11.1216L39.9121 10.0977C39.9268 9.96289 39.9912 9.89551 40.1055 9.89551ZM47.8486 4.94287L48.8506 4.65283V10.6338L48.1299 11.3237H47.8486V4.94287ZM58.8877 7.14014C58.9902 7.4624 59.0708 7.77002 59.1294 8.06299C59.1909 8.35303 59.2217 8.62988 59.2217 8.89355C59.2217 9.38574 59.1499 9.78711 59.0063 10.0977C58.8628 10.4053 58.6665 10.6426 58.4175 10.8096C58.1245 11.0088 57.7524 11.145 57.3013 11.2183C56.853 11.2886 56.3447 11.3237 55.7764 11.3237H54.9414C54.1797 11.3237 53.5674 11.2432 53.1045 11.082C52.6416 10.9209 52.3047 10.6763 52.0938 10.3481C51.8857 10.02 51.7817 9.60547 51.7817 9.10449C51.7817 8.81738 51.811 8.52002 51.8696 8.2124C51.9312 7.90479 52.0161 7.60889 52.1245 7.32471L52.7969 7.3291C52.709 7.58398 52.6431 7.81836 52.5991 8.03223C52.5552 8.24316 52.5332 8.43506 52.5332 8.60791C52.5332 8.92432 52.6167 9.17773 52.7837 9.36816C52.9507 9.55566 53.2217 9.69043 53.5967 9.77246C53.9746 9.85449 54.48 9.89551 55.1128 9.89551H55.8467C56.2041 9.89551 56.5396 9.88379 56.853 9.86035C57.1694 9.83691 57.4478 9.79883 57.688 9.74609C57.9312 9.69043 58.1216 9.61865 58.2593 9.53076C58.397 9.44287 58.4658 9.33301 58.4658 9.20117C58.4658 9.07812 58.416 8.88623 58.3164 8.62549C58.2168 8.36475 58.0747 8.01904 57.8901 7.58838L58.8877 7.14014ZM55.4512 6.0459L54.7788 6.72266L54.1108 6.0459L54.7788 5.36914L55.4512 6.0459ZM56.8662 6.0459L56.1938 6.72266L55.5259 6.0459L56.1938 5.36914L56.8662 6.0459ZM62.5176 11.3237C62.04 11.3237 61.6533 11.2593 61.3574 11.1304C61.0615 10.9985 60.8433 10.7891 60.7026 10.502C60.5649 10.2148 60.4961 9.83398 60.4961 9.35938V4.94287L61.498 4.65283V8.97266C61.498 9.2041 61.5244 9.38721 61.5771 9.52197C61.6299 9.65674 61.7383 9.75342 61.9023 9.81201C62.0664 9.86768 62.3125 9.89551 62.6406 9.89551L62.5176 11.3237ZM62.5176 11.3237C62.4561 11.3237 62.4092 11.3062 62.377 11.271C62.3477 11.2329 62.3359 11.1831 62.3418 11.1216L62.4517 10.0977C62.4663 9.96289 62.5293 9.89551 62.6406 9.89551C62.7021 9.89551 62.749 9.91455 62.7812 9.95264C62.8135 9.99072 62.8267 10.0391 62.8208 10.0977L62.7109 11.1216C62.6963 11.2563 62.6318 11.3237 62.5176 11.3237ZM64.6489 6.01514L63.9106 6.7666L63.168 6.01074L63.9106 5.26807L64.6489 6.01514ZM64.4863 7.38623C64.5801 7.70557 64.6519 8.01318 64.7017 8.30908C64.7515 8.60205 64.7764 8.88623 64.7764 9.16162C64.7764 9.54248 64.7236 9.88232 64.6182 10.1812C64.5127 10.48 64.3574 10.7158 64.1523 10.8887C63.9707 11.0439 63.7466 11.1553 63.48 11.2227C63.2163 11.29 62.8955 11.3237 62.5176 11.3237L62.6406 9.89551C62.9131 9.89551 63.1519 9.88086 63.3569 9.85156C63.562 9.81934 63.7231 9.7666 63.8403 9.69336C63.9575 9.61719 64.0161 9.51318 64.0161 9.38135C64.0161 9.27881 63.9883 9.13965 63.9326 8.96387C63.8799 8.78809 63.814 8.59912 63.7349 8.39697C63.6558 8.19482 63.5767 8.00293 63.4976 7.82129L64.4863 7.38623ZM62.6406 9.89551C62.7021 9.89551 62.749 9.91455 62.7812 9.95264C62.8135 9.98779 62.8252 10.0361 62.8164 10.0977L62.7109 11.1216C62.6963 11.2563 62.6318 11.3237 62.5176 11.3237C62.4561 11.3237 62.4092 11.3062 62.377 11.271C62.3447 11.2329 62.3315 11.1831 62.3374 11.1216L62.4473 10.0977C62.4619 9.96289 62.5264 9.89551 62.6406 9.89551ZM68.0723 11.3237C67.5947 11.3237 67.208 11.2593 66.9121 11.1304C66.6162 10.9985 66.3979 10.7891 66.2573 10.502C66.1196 10.2148 66.0508 9.83398 66.0508 9.35938V4.94287L67.0527 4.65283V8.97266C67.0527 9.2041 67.0791 9.38721 67.1318 9.52197C67.1846 9.65674 67.293 9.75342 67.457 9.81201C67.6211 9.86768 67.8672 9.89551 68.1953 9.89551L68.0723 11.3237ZM68.0723 11.3237C68.0107 11.3237 67.9639 11.3062 67.9316 11.271C67.9023 11.2329 67.8906 11.1831 67.8965 11.1216L68.0063 10.0977C68.021 9.96289 68.084 9.89551 68.1953 9.89551C68.2568 9.89551 68.3037 9.91455 68.3359 9.95264C68.3682 9.99072 68.3813 10.0391 68.3755 10.0977L68.2656 11.1216C68.251 11.2563 68.1865 11.3237 68.0723 11.3237ZM70.208 8.00586V9.03418C70.208 9.27441 70.2534 9.45605 70.3442 9.5791C70.438 9.70215 70.5757 9.78564 70.7573 9.82959C70.939 9.87354 71.1616 9.89551 71.4253 9.89551L71.3022 11.3237C71.0239 11.3237 70.7617 11.2842 70.5156 11.2051C70.2725 11.126 70.0688 10.9897 69.9048 10.7964C69.7437 10.6001 69.6411 10.3291 69.5972 9.9834L69.8652 10.0054C69.8242 10.3569 69.7305 10.6279 69.584 10.8184C69.4375 11.0088 69.2383 11.1406 68.9863 11.2139C68.7373 11.2871 68.4326 11.3237 68.0723 11.3237L68.1953 9.89551C68.4619 9.89551 68.686 9.87354 68.8677 9.82959C69.0493 9.78564 69.1855 9.70215 69.2764 9.5791C69.3701 9.45605 69.417 9.27441 69.417 9.03418V8.00586H70.208ZM71.3022 11.3237C71.2407 11.3237 71.1938 11.3062 71.1616 11.271C71.1323 11.2329 71.1206 11.1831 71.1265 11.1216L71.2363 10.0977C71.251 9.96289 71.314 9.89551 71.4253 9.89551C71.4868 9.89551 71.5337 9.91455 71.5659 9.95264C71.5981 9.99072 71.6113 10.0391 71.6055 10.0977L71.4956 11.1216C71.481 11.2563 71.4165 11.3237 71.3022 11.3237ZM68.0723 11.3237C68.0107 11.3237 67.9639 11.3062 67.9316 11.271C67.8994 11.2329 67.8862 11.1831 67.8921 11.1216L68.002 10.0977C68.0195 9.96289 68.084 9.89551 68.1953 9.89551C68.2568 9.89551 68.3037 9.91455 68.3359 9.95264C68.3682 9.99072 68.3799 10.0391 68.3711 10.0977L68.2656 11.1216C68.251 11.2563 68.1865 11.3237 68.0723 11.3237ZM69.5972 12.4751L68.9292 13.1475L68.2612 12.4751L68.9292 11.7983L69.5972 12.4751ZM71.0122 12.4751L70.3398 13.1475L69.6719 12.4751L70.3398 11.7983L71.0122 12.4751ZM73.1919 12.4751L72.4536 13.2222L71.7109 12.4707L72.4536 11.728L73.1919 12.4751ZM73.2754 7.38623C73.3691 7.70557 73.4409 8.01318 73.4907 8.30908C73.5405 8.60205 73.5654 8.88623 73.5654 9.16162C73.5654 9.54248 73.5127 9.88232 73.4072 10.1812C73.3018 10.48 73.1465 10.7158 72.9414 10.8887C72.7598 11.0439 72.5356 11.1553 72.269 11.2227C72.0054 11.29 71.6846 11.3237 71.3066 11.3237L71.4297 9.89551C71.7021 9.89551 71.9409 9.88086 72.146 9.85156C72.3511 9.81934 72.5122 9.7666 72.6294 9.69336C72.7466 9.61719 72.8052 9.51318 72.8052 9.38135C72.8052 9.27881 72.7773 9.13965 72.7217 8.96387C72.6689 8.78809 72.603 8.59912 72.5239 8.39697C72.4448 8.19482 72.3657 8.00293 72.2866 7.82129L73.2754 7.38623ZM71.4297 9.89551C71.4912 9.89551 71.5381 9.91455 71.5703 9.95264C71.6025 9.98779 71.6143 10.0361 71.6055 10.0977L71.5 11.1216C71.4854 11.2563 71.4209 11.3237 71.3066 11.3237C71.2451 11.3237 71.1982 11.3062 71.166 11.271C71.1338 11.2329 71.1206 11.1831 71.1265 11.1216L71.2363 10.0977C71.251 9.96289 71.3154 9.89551 71.4297 9.89551Z" fill="#0D5BE3"/>
<path d="M124.417 0.5H124.917C129.473 0.5 133.167 4.19365 133.167 8.75C133.167 13.3063 129.473 17 124.917 17H124.417C119.86 17 116.167 13.3063 116.167 8.75C116.167 4.19365 119.86 0.5 124.417 0.5Z" fill="#C5D9FC"/>
<path d="M124.417 0.5H124.917C129.473 0.5 133.167 4.19365 133.167 8.75C133.167 13.3063 129.473 17 124.917 17H124.417C119.86 17 116.167 13.3063 116.167 8.75C116.167 4.19365 119.86 0.5 124.417 0.5Z" stroke="#9ABCF9"/>
<path d="M122.983 11.5V10.6953L124.799 8.91406C125.062 8.65885 125.267 8.44922 125.413 8.28516C125.561 8.11849 125.664 7.97396 125.721 7.85156C125.779 7.72656 125.807 7.59896 125.807 7.46875V7.45703C125.807 7.29818 125.772 7.15885 125.702 7.03906C125.634 6.91667 125.536 6.82161 125.409 6.75391C125.281 6.68359 125.128 6.64844 124.948 6.64844C124.766 6.64844 124.605 6.6862 124.467 6.76172C124.329 6.83724 124.221 6.94271 124.143 7.07812C124.065 7.21094 124.026 7.36589 124.026 7.54297V7.5625H122.921L122.917 7.54297C122.917 7.18099 123.004 6.86328 123.178 6.58984C123.355 6.31641 123.6 6.10286 123.913 5.94922C124.228 5.79557 124.591 5.71875 125.003 5.71875C125.393 5.71875 125.737 5.78776 126.034 5.92578C126.331 6.0638 126.562 6.25651 126.729 6.50391C126.898 6.7487 126.983 7.03255 126.983 7.35547V7.37109C126.983 7.58203 126.941 7.79036 126.858 7.99609C126.775 8.20182 126.633 8.42318 126.432 8.66016C126.234 8.89714 125.964 9.17448 125.62 9.49219L124.264 10.75L124.589 10.2305V10.75L124.268 10.5391H127.065V11.5H122.983Z" fill="#9ABCF9"/>
<path d="M147.695 10.2119C147.809 10.1592 147.909 10.1006 147.994 10.0361C148.079 9.97168 148.148 9.90283 148.2 9.82959C148.353 9.85889 148.528 9.87793 148.728 9.88672C148.927 9.89258 149.145 9.89551 149.382 9.89551L149.259 11.3237C148.738 11.3237 148.35 11.2314 148.095 11.0469C147.843 10.8623 147.71 10.584 147.695 10.2119ZM149.259 11.3237C149.198 11.3237 149.151 11.3062 149.119 11.271C149.087 11.2329 149.073 11.1831 149.079 11.1216L149.189 10.0977C149.204 9.96289 149.268 9.89551 149.382 9.89551C149.444 9.89551 149.491 9.91455 149.523 9.95264C149.555 9.99072 149.567 10.0391 149.558 10.0977L149.448 11.1216C149.437 11.2563 149.374 11.3237 149.259 11.3237ZM144.658 11.3237C144.198 11.3237 143.816 11.2563 143.511 11.1216C143.21 10.9868 142.966 10.7729 142.782 10.48C142.597 10.1841 142.452 9.7959 142.347 9.31543L143.01 8.91113C143.072 9.16016 143.161 9.3623 143.278 9.51758C143.396 9.66992 143.57 9.78125 143.801 9.85156C144.033 9.91895 144.354 9.95264 144.764 9.95264H146.157C146.549 9.95264 146.856 9.93945 147.075 9.91309C147.295 9.88672 147.45 9.84131 147.541 9.77686C147.632 9.70947 147.677 9.61865 147.677 9.50439C147.677 9.3667 147.629 9.22021 147.532 9.06494C147.436 8.90674 147.297 8.77344 147.115 8.66504C146.933 8.55371 146.715 8.49805 146.46 8.49805C146.085 8.49805 145.668 8.64893 145.208 8.95068C144.748 9.24951 144.276 9.69922 143.793 10.2998L143.252 10.0405C143.668 9.47803 144.064 8.98291 144.439 8.55518C144.817 8.12451 145.187 7.79053 145.55 7.55322C145.917 7.31299 146.296 7.19287 146.689 7.19287C147.02 7.19287 147.314 7.28516 147.572 7.46973C147.83 7.6543 148.033 7.90479 148.183 8.22119C148.332 8.5376 148.407 8.89355 148.407 9.28906C148.407 10.0303 148.161 10.5781 147.669 10.9326C147.484 11.0674 147.25 11.167 146.965 11.2314C146.684 11.293 146.368 11.3237 146.016 11.3237H144.658ZM140.563 13.2881C140.035 13.2881 139.593 13.1899 139.235 12.9937C138.878 12.8003 138.607 12.522 138.422 12.1587C138.238 11.7983 138.146 11.3647 138.146 10.8579C138.151 10.562 138.185 10.2515 138.247 9.92627C138.311 9.59814 138.392 9.29053 138.488 9.00342L139.161 9.00781C139.088 9.26562 139.029 9.52051 138.985 9.77246C138.941 10.0244 138.919 10.2544 138.919 10.4624C138.919 10.9399 139.063 11.2974 139.35 11.5347C139.64 11.772 140.076 11.8906 140.659 11.8906C140.984 11.8906 141.277 11.8496 141.538 11.7676C141.802 11.6855 142.01 11.5669 142.162 11.4116C142.318 11.2563 142.395 11.0688 142.395 10.8491C142.395 10.7583 142.388 10.6602 142.373 10.5547C142.361 10.4492 142.337 10.3232 142.298 10.1768C142.263 10.0273 142.215 9.84863 142.153 9.64062C142.092 9.43262 142.011 9.18066 141.912 8.88477L142.922 8.55078L143.01 8.91113C143.063 9.21875 143.089 9.50586 143.089 9.77246C143.092 10.0391 143.094 10.3101 143.094 10.5854C143.094 11.019 143.047 11.3984 142.953 11.7236C142.859 12.0459 142.72 12.3169 142.536 12.5366C142.319 12.7944 142.042 12.9834 141.705 13.1035C141.371 13.2266 140.99 13.2881 140.563 13.2881ZM156.269 10.2119C156.383 10.1592 156.483 10.1006 156.568 10.0361C156.652 9.97168 156.721 9.90283 156.774 9.82959C156.923 9.85889 157.098 9.87793 157.297 9.88672C157.499 9.89258 157.719 9.89551 157.956 9.89551L157.833 11.3237C157.312 11.3237 156.925 11.2314 156.673 11.0469C156.421 10.8623 156.286 10.584 156.269 10.2119ZM157.833 11.3237C157.775 11.3237 157.728 11.3062 157.693 11.271C157.66 11.2329 157.649 11.1831 157.657 11.1216L157.767 10.0977C157.782 9.96289 157.845 9.89551 157.956 9.89551C158.018 9.89551 158.065 9.91455 158.097 9.95264C158.129 9.99072 158.142 10.0391 158.136 10.0977L158.026 11.1216C158.012 11.2563 157.947 11.3237 157.833 11.3237ZM155.258 7.19287C155.586 7.19287 155.879 7.28516 156.137 7.46973C156.398 7.6543 156.603 7.90479 156.752 8.22119C156.901 8.5376 156.976 8.89355 156.976 9.28906C156.976 10.0215 156.732 10.5679 156.242 10.9282C156.052 11.0688 155.809 11.1699 155.513 11.2314C155.217 11.293 154.887 11.3237 154.524 11.3237H152.331L152.327 9.95264H154.634C155.05 9.95264 155.375 9.93945 155.609 9.91309C155.844 9.88672 156.008 9.84131 156.102 9.77686C156.198 9.70947 156.247 9.61865 156.247 9.50439C156.247 9.3667 156.198 9.22021 156.102 9.06494C156.005 8.90674 155.866 8.77344 155.684 8.66504C155.503 8.55371 155.284 8.49805 155.029 8.49805C154.777 8.49805 154.508 8.56689 154.221 8.70459C153.937 8.84229 153.636 9.04883 153.32 9.32422C153.006 9.59668 152.678 9.93945 152.336 10.3525L151.773 10.1064C152.201 9.52637 152.604 9.01807 152.982 8.58154C153.362 8.14209 153.737 7.80078 154.107 7.55762C154.479 7.31445 154.862 7.19287 155.258 7.19287ZM151.342 8.55078V9.23633C151.342 9.5 151.42 9.68604 151.575 9.79443C151.734 9.90283 151.984 9.95703 152.327 9.95703L152.331 11.3237C152.059 11.3237 151.807 11.2886 151.575 11.2183C151.347 11.145 151.155 11.0146 151 10.8271C150.844 10.6396 150.745 10.376 150.701 10.0361L151.101 10.0273C151.016 10.3789 150.901 10.6484 150.758 10.8359C150.617 11.0205 150.427 11.1479 150.187 11.2183C149.946 11.2886 149.637 11.3237 149.259 11.3237L149.382 9.89551C149.672 9.89551 149.905 9.87793 150.081 9.84277C150.257 9.80469 150.383 9.73877 150.459 9.64502C150.538 9.55127 150.578 9.41504 150.578 9.23633V8.55078H151.342ZM149.382 9.89551C149.444 9.89551 149.491 9.91455 149.523 9.95264C149.555 9.98779 149.567 10.0361 149.558 10.0977L149.453 11.1216C149.438 11.2563 149.374 11.3237 149.259 11.3237C149.198 11.3237 149.151 11.3062 149.119 11.271C149.087 11.2329 149.073 11.1831 149.079 11.1216L149.189 10.0977C149.204 9.96289 149.268 9.89551 149.382 9.89551ZM161.938 6.01514L161.199 6.7666L160.457 6.01074L161.199 5.26807L161.938 6.01514ZM164.482 11.3237C163.873 11.3237 163.417 11.1802 163.115 10.8931C162.814 10.603 162.663 10.1299 162.663 9.47363V8.79688L163.208 8.78369V8.91553C163.208 9.16162 163.243 9.35645 163.313 9.5C163.383 9.64062 163.515 9.7417 163.709 9.80322C163.902 9.86475 164.186 9.89551 164.561 9.89551H164.834L164.706 11.3237H164.482ZM164.706 11.3237C164.645 11.3237 164.598 11.3062 164.566 11.271C164.536 11.2329 164.525 11.1831 164.53 11.1216L164.64 10.0977C164.655 9.96289 164.719 9.89551 164.834 9.89551C164.892 9.89551 164.938 9.91455 164.97 9.95264C165.002 9.99072 165.015 10.0391 165.009 10.0977L164.9 11.1216C164.885 11.2563 164.82 11.3237 164.706 11.3237ZM157.838 11.3237L157.956 9.89551C158.378 9.89551 158.759 9.88379 159.099 9.86035C159.439 9.83398 159.755 9.79297 160.048 9.7373C160.344 9.67871 160.634 9.604 160.918 9.51318C161.141 9.43701 161.321 9.37109 161.459 9.31543C161.596 9.25977 161.718 9.20996 161.823 9.16602C161.932 9.12207 162.049 9.08105 162.175 9.04297L162.149 9.24951C161.9 9.19971 161.67 9.13379 161.459 9.05176C161.251 8.96973 161.043 8.8877 160.835 8.80566C160.63 8.7207 160.405 8.65039 160.162 8.59473C159.919 8.53906 159.641 8.51123 159.327 8.51123C159.172 8.51123 159.023 8.52588 158.879 8.55518C158.735 8.58154 158.605 8.61523 158.488 8.65625L158.479 7.896C158.658 7.73486 158.851 7.59863 159.059 7.4873C159.267 7.37305 159.493 7.31592 159.736 7.31592C160.026 7.31592 160.294 7.34814 160.54 7.4126C160.786 7.47705 161.024 7.55762 161.252 7.6543C161.484 7.74805 161.715 7.84326 161.946 7.93994C162.181 8.03369 162.425 8.11279 162.68 8.17725C162.938 8.2417 163.218 8.27393 163.52 8.27393H164.078L163.884 9.60107H163.445C163.222 9.60107 163.013 9.62158 162.817 9.6626C162.623 9.70068 162.411 9.77539 162.179 9.88672C161.948 9.99512 161.664 10.1519 161.327 10.3569C160.955 10.5913 160.6 10.7803 160.263 10.9238C159.926 11.0645 159.566 11.167 159.182 11.2314C158.798 11.293 158.35 11.3237 157.838 11.3237ZM157.961 9.89551C158.022 9.89551 158.069 9.91455 158.101 9.95264C158.133 9.98779 158.145 10.0361 158.136 10.0977L158.031 11.1216C158.016 11.2563 157.952 11.3237 157.838 11.3237C157.776 11.3237 157.729 11.3062 157.697 11.271C157.665 11.2329 157.651 11.1831 157.657 11.1216L157.767 10.0977C157.782 9.96289 157.846 9.89551 157.961 9.89551ZM166.416 7.08984L165.743 7.7666L165.075 7.08984L165.743 6.41309L166.416 7.08984ZM167.831 7.08984L167.158 7.7666L166.49 7.08984L167.158 6.41309L167.831 7.08984ZM166.846 8.00586V9.03418C166.846 9.27441 166.892 9.45605 166.983 9.5791C167.076 9.70215 167.214 9.78564 167.396 9.82959C167.577 9.87354 167.8 9.89551 168.064 9.89551L167.941 11.3237C167.662 11.3237 167.4 11.2842 167.154 11.2051C166.911 11.126 166.707 10.9897 166.543 10.7964C166.382 10.6001 166.279 10.3291 166.235 9.9834L166.504 10.0054C166.463 10.3569 166.369 10.6279 166.222 10.8184C166.076 11.0088 165.877 11.1406 165.625 11.2139C165.376 11.2871 165.071 11.3237 164.711 11.3237L164.834 9.89551C165.1 9.89551 165.324 9.87354 165.506 9.82959C165.688 9.78564 165.824 9.70215 165.915 9.5791C166.008 9.45605 166.055 9.27441 166.055 9.03418V8.00586H166.846ZM167.941 11.3237C167.879 11.3237 167.832 11.3062 167.8 11.271C167.771 11.2329 167.759 11.1831 167.765 11.1216L167.875 10.0977C167.889 9.96289 167.952 9.89551 168.064 9.89551C168.125 9.89551 168.172 9.91455 168.204 9.95264C168.236 9.99072 168.25 10.0391 168.244 10.0977L168.134 11.1216C168.119 11.2563 168.055 11.3237 167.941 11.3237ZM164.711 11.3237C164.649 11.3237 164.602 11.3062 164.57 11.271C164.538 11.2329 164.525 11.1831 164.53 11.1216L164.64 10.0977C164.658 9.96289 164.722 9.89551 164.834 9.89551C164.895 9.89551 164.942 9.91455 164.974 9.95264C165.006 9.99072 165.018 10.0391 165.009 10.0977L164.904 11.1216C164.889 11.2563 164.825 11.3237 164.711 11.3237ZM170.208 4.65283V8.76611C170.208 9.26709 170.141 9.71387 170.006 10.1064C169.874 10.4961 169.668 10.7861 169.386 10.9766C169.219 11.0938 169.016 11.1816 168.776 11.2402C168.538 11.2959 168.261 11.3237 167.945 11.3237L168.068 9.89551C168.338 9.89551 168.556 9.87354 168.723 9.82959C168.89 9.78564 169.013 9.70801 169.092 9.59668C169.171 9.48242 169.211 9.32129 169.211 9.11328V4.94287L170.208 4.65283ZM167.945 11.3237C167.883 11.3237 167.837 11.3062 167.804 11.271C167.772 11.2329 167.759 11.1831 167.765 11.1216L167.875 10.0977C167.892 9.96289 167.957 9.89551 168.068 9.89551C168.13 9.89551 168.176 9.91455 168.209 9.95264C168.241 9.99072 168.253 10.0391 168.244 10.0977L168.138 11.1216C168.124 11.2563 168.059 11.3237 167.945 11.3237ZM171.601 4.94287L172.603 4.65283V10.6338L171.882 11.3237H171.601V4.94287ZM182.64 7.14014C182.743 7.4624 182.823 7.77002 182.882 8.06299C182.943 8.35303 182.974 8.62988 182.974 8.89355C182.974 9.38574 182.902 9.78711 182.759 10.0977C182.615 10.4053 182.419 10.6426 182.17 10.8096C181.877 11.0088 181.505 11.145 181.054 11.2183C180.606 11.2886 180.097 11.3237 179.529 11.3237H178.694C177.932 11.3237 177.32 11.2432 176.857 11.082C176.394 10.9209 176.057 10.6763 175.846 10.3481C175.638 10.02 175.534 9.60547 175.534 9.10449C175.534 8.81738 175.564 8.52002 175.622 8.2124C175.684 7.90479 175.769 7.60889 175.877 7.32471L176.549 7.3291C176.462 7.58398 176.396 7.81836 176.352 8.03223C176.308 8.24316 176.286 8.43506 176.286 8.60791C176.286 8.92432 176.369 9.17773 176.536 9.36816C176.703 9.55566 176.974 9.69043 177.349 9.77246C177.727 9.85449 178.233 9.89551 178.865 9.89551H179.599C179.957 9.89551 180.292 9.88379 180.606 9.86035C180.922 9.83691 181.2 9.79883 181.441 9.74609C181.684 9.69043 181.874 9.61865 182.012 9.53076C182.15 9.44287 182.218 9.33301 182.218 9.20117C182.218 9.07812 182.169 8.88623 182.069 8.62549C181.969 8.36475 181.827 8.01904 181.643 7.58838L182.64 7.14014ZM179.204 6.0459L178.531 6.72266L177.863 6.0459L178.531 5.36914L179.204 6.0459ZM180.619 6.0459L179.946 6.72266L179.278 6.0459L179.946 5.36914L180.619 6.0459ZM186.27 11.3237C185.793 11.3237 185.406 11.2593 185.11 11.1304C184.814 10.9985 184.596 10.7891 184.455 10.502C184.318 10.2148 184.249 9.83398 184.249 9.35938V4.94287L185.251 4.65283V8.97266C185.251 9.2041 185.277 9.38721 185.33 9.52197C185.382 9.65674 185.491 9.75342 185.655 9.81201C185.819 9.86768 186.065 9.89551 186.393 9.89551L186.27 11.3237ZM186.27 11.3237C186.209 11.3237 186.162 11.3062 186.13 11.271C186.1 11.2329 186.089 11.1831 186.094 11.1216L186.204 10.0977C186.219 9.96289 186.282 9.89551 186.393 9.89551C186.455 9.89551 186.502 9.91455 186.534 9.95264C186.566 9.99072 186.579 10.0391 186.573 10.0977L186.464 11.1216C186.449 11.2563 186.384 11.3237 186.27 11.3237ZM188.401 6.01514L187.663 6.7666L186.921 6.01074L187.663 5.26807L188.401 6.01514ZM188.239 7.38623C188.333 7.70557 188.404 8.01318 188.454 8.30908C188.504 8.60205 188.529 8.88623 188.529 9.16162C188.529 9.54248 188.476 9.88232 188.371 10.1812C188.265 10.48 188.11 10.7158 187.905 10.8887C187.723 11.0439 187.499 11.1553 187.233 11.2227C186.969 11.29 186.648 11.3237 186.27 11.3237L186.393 9.89551C186.666 9.89551 186.904 9.88086 187.109 9.85156C187.315 9.81934 187.476 9.7666 187.593 9.69336C187.71 9.61719 187.769 9.51318 187.769 9.38135C187.769 9.27881 187.741 9.13965 187.685 8.96387C187.632 8.78809 187.567 8.59912 187.487 8.39697C187.408 8.19482 187.329 8.00293 187.25 7.82129L188.239 7.38623ZM186.393 9.89551C186.455 9.89551 186.502 9.91455 186.534 9.95264C186.566 9.98779 186.578 10.0361 186.569 10.0977L186.464 11.1216C186.449 11.2563 186.384 11.3237 186.27 11.3237C186.209 11.3237 186.162 11.3062 186.13 11.271C186.097 11.2329 186.084 11.1831 186.09 11.1216L186.2 10.0977C186.214 9.96289 186.279 9.89551 186.393 9.89551ZM191.825 11.3237C191.347 11.3237 190.961 11.2593 190.665 11.1304C190.369 10.9985 190.151 10.7891 190.01 10.502C189.872 10.2148 189.803 9.83398 189.803 9.35938V4.94287L190.805 4.65283V8.97266C190.805 9.2041 190.832 9.38721 190.884 9.52197C190.937 9.65674 191.046 9.75342 191.21 9.81201C191.374 9.86768 191.62 9.89551 191.948 9.89551L191.825 11.3237ZM191.825 11.3237C191.763 11.3237 191.716 11.3062 191.684 11.271C191.655 11.2329 191.643 11.1831 191.649 11.1216L191.759 10.0977C191.774 9.96289 191.837 9.89551 191.948 9.89551C192.009 9.89551 192.056 9.91455 192.089 9.95264C192.121 9.99072 192.134 10.0391 192.128 10.0977L192.018 11.1216C192.004 11.2563 191.939 11.3237 191.825 11.3237ZM193.961 8.00586V9.03418C193.961 9.27441 194.006 9.45605 194.097 9.5791C194.191 9.70215 194.328 9.78564 194.51 9.82959C194.692 9.87354 194.914 9.89551 195.178 9.89551L195.055 11.3237C194.776 11.3237 194.514 11.2842 194.268 11.2051C194.025 11.126 193.821 10.9897 193.657 10.7964C193.496 10.6001 193.394 10.3291 193.35 9.9834L193.618 10.0054C193.577 10.3569 193.483 10.6279 193.337 10.8184C193.19 11.0088 192.991 11.1406 192.739 11.2139C192.49 11.2871 192.185 11.3237 191.825 11.3237L191.948 9.89551C192.214 9.89551 192.439 9.87354 192.62 9.82959C192.802 9.78564 192.938 9.70215 193.029 9.5791C193.123 9.45605 193.17 9.27441 193.17 9.03418V8.00586H193.961ZM195.055 11.3237C194.993 11.3237 194.946 11.3062 194.914 11.271C194.885 11.2329 194.873 11.1831 194.879 11.1216L194.989 10.0977C195.004 9.96289 195.067 9.89551 195.178 9.89551C195.239 9.89551 195.286 9.91455 195.318 9.95264C195.351 9.99072 195.364 10.0391 195.358 10.0977L195.248 11.1216C195.234 11.2563 195.169 11.3237 195.055 11.3237ZM191.825 11.3237C191.763 11.3237 191.716 11.3062 191.684 11.271C191.652 11.2329 191.639 11.1831 191.645 11.1216L191.755 10.0977C191.772 9.96289 191.837 9.89551 191.948 9.89551C192.009 9.89551 192.056 9.91455 192.089 9.95264C192.121 9.99072 192.132 10.0391 192.124 10.0977L192.018 11.1216C192.004 11.2563 191.939 11.3237 191.825 11.3237ZM193.35 12.4751L192.682 13.1475L192.014 12.4751L192.682 11.7983L193.35 12.4751ZM194.765 12.4751L194.092 13.1475L193.424 12.4751L194.092 11.7983L194.765 12.4751ZM196.944 12.4751L196.206 13.2222L195.464 12.4707L196.206 11.728L196.944 12.4751ZM197.028 7.38623C197.122 7.70557 197.193 8.01318 197.243 8.30908C197.293 8.60205 197.318 8.88623 197.318 9.16162C197.318 9.54248 197.265 9.88232 197.16 10.1812C197.054 10.48 196.899 10.7158 196.694 10.8887C196.512 11.0439 196.288 11.1553 196.022 11.2227C195.758 11.29 195.437 11.3237 195.059 11.3237L195.182 9.89551C195.455 9.89551 195.693 9.88086 195.899 9.85156C196.104 9.81934 196.265 9.7666 196.382 9.69336C196.499 9.61719 196.558 9.51318 196.558 9.38135C196.558 9.27881 196.53 9.13965 196.474 8.96387C196.422 8.78809 196.356 8.59912 196.276 8.39697C196.197 8.19482 196.118 8.00293 196.039 7.82129L197.028 7.38623ZM195.182 9.89551C195.244 9.89551 195.291 9.91455 195.323 9.95264C195.355 9.98779 195.367 10.0361 195.358 10.0977L195.253 11.1216C195.238 11.2563 195.173 11.3237 195.059 11.3237C194.998 11.3237 194.951 11.3062 194.919 11.271C194.886 11.2329 194.873 11.1831 194.879 11.1216L194.989 10.0977C195.004 9.96289 195.068 9.89551 195.182 9.89551Z" fill="#9ABCF9"/>
<path d="M240.083 0.5H240.583C245.14 0.5 248.833 4.19365 248.833 8.75C248.833 13.3063 245.14 17 240.583 17H240.083C235.527 17 231.833 13.3063 231.833 8.75C231.833 4.19365 235.527 0.5 240.083 0.5Z" fill="#C5D9FC"/>
<path d="M240.083 0.5H240.583C245.14 0.5 248.833 4.19365 248.833 8.75C248.833 13.3063 245.14 17 240.583 17H240.083C235.527 17 231.833 13.3063 231.833 8.75C231.833 4.19365 235.527 0.5 240.083 0.5Z" stroke="#9ABCF9"/>
<path d="M240.013 11.625C239.589 11.625 239.216 11.5547 238.896 11.4141C238.576 11.2708 238.322 11.0716 238.134 10.8164C237.949 10.5612 237.842 10.2656 237.814 9.92969L237.81 9.87891H238.954L238.962 9.92188C238.988 10.138 239.094 10.3164 239.279 10.457C239.466 10.5977 239.711 10.668 240.013 10.668C240.214 10.668 240.387 10.6341 240.533 10.5664C240.681 10.4961 240.796 10.3997 240.876 10.2773C240.957 10.1549 240.997 10.0156 240.997 9.85938V9.85156C240.997 9.58594 240.902 9.38281 240.712 9.24219C240.525 9.09896 240.262 9.02734 239.923 9.02734H239.279V8.17578H239.908C240.106 8.17578 240.276 8.14453 240.419 8.08203C240.565 8.01693 240.677 7.92708 240.755 7.8125C240.836 7.69792 240.876 7.5651 240.876 7.41406V7.40625C240.876 7.25 240.841 7.11589 240.771 7.00391C240.703 6.89193 240.604 6.80599 240.474 6.74609C240.344 6.6862 240.188 6.65625 240.005 6.65625C239.823 6.65625 239.661 6.6875 239.521 6.75C239.383 6.8125 239.272 6.90104 239.189 7.01562C239.106 7.13021 239.056 7.26432 239.04 7.41797L239.036 7.45703H237.935L237.939 7.40625C237.967 7.06771 238.07 6.77344 238.247 6.52344C238.425 6.27344 238.663 6.08073 238.962 5.94531C239.262 5.80729 239.609 5.73828 240.005 5.73828C240.411 5.73828 240.764 5.80208 241.064 5.92969C241.363 6.05469 241.595 6.23047 241.759 6.45703C241.923 6.68359 242.005 6.94661 242.005 7.24609V7.25391C242.005 7.48828 241.953 7.69531 241.849 7.875C241.745 8.05208 241.604 8.19792 241.427 8.3125C241.25 8.42708 241.051 8.50651 240.829 8.55078V8.57422C241.251 8.61328 241.587 8.7487 241.837 8.98047C242.09 9.21224 242.216 9.51953 242.216 9.90234V9.91016C242.216 10.2513 242.124 10.5508 241.939 10.8086C241.757 11.0664 241.5 11.2669 241.169 11.4102C240.841 11.5534 240.456 11.625 240.013 11.625Z" fill="#9ABCF9"/>
<path d="M255.254 10.6118C254.94 10.6118 254.675 10.5518 254.458 10.4316C254.245 10.3086 254.083 10.1372 253.975 9.91748C253.867 9.69775 253.812 9.44287 253.812 9.15283C253.812 8.9126 253.862 8.68848 253.962 8.48047C254.064 8.27246 254.221 8.0791 254.432 7.90039C254.646 7.72168 254.92 7.55615 255.254 7.40381C255.588 7.25146 255.989 7.11084 256.458 6.98193V8.02344C256.182 8.09668 255.926 8.17139 255.689 8.24756C255.454 8.3208 255.249 8.39697 255.074 8.47607C254.898 8.55518 254.76 8.64014 254.661 8.73096C254.564 8.81885 254.516 8.9126 254.516 9.01221C254.516 9.11475 254.581 9.19971 254.713 9.26709C254.845 9.33447 255.03 9.36816 255.267 9.36816C255.487 9.36816 255.69 9.34033 255.878 9.28467C256.065 9.229 256.222 9.15576 256.348 9.06494L256.555 9.79004C256.408 10.0303 256.228 10.228 256.014 10.3833C255.803 10.5356 255.55 10.6118 255.254 10.6118ZM258.189 11.3237C257.474 11.3237 256.957 11.1743 256.638 10.8755C256.322 10.5767 256.163 10.0713 256.163 9.35938V6.70508L257.157 6.50732V8.97266C257.157 9.2041 257.183 9.38721 257.236 9.52197C257.291 9.65674 257.401 9.75342 257.565 9.81201C257.732 9.86768 257.983 9.89551 258.317 9.89551L258.189 11.3237ZM258.194 11.3237C258.132 11.3237 258.085 11.3062 258.053 11.271C258.021 11.2329 258.008 11.1831 258.014 11.1216L258.123 10.0977C258.141 9.96289 258.205 9.89551 258.317 9.89551C258.378 9.89551 258.425 9.91455 258.457 9.95264C258.49 9.99072 258.503 10.0391 258.497 10.0977L258.383 11.1216C258.371 11.2563 258.308 11.3237 258.194 11.3237ZM255.847 5.14941L255.175 5.82617L254.507 5.14941L255.175 4.47266L255.847 5.14941ZM257.262 5.14941L256.59 5.82617L255.922 5.14941L256.59 4.47266L257.262 5.14941ZM260.079 12.4751L259.341 13.2222L258.598 12.4707L259.341 11.728L260.079 12.4751ZM260.162 7.38623C260.256 7.70557 260.328 8.01318 260.378 8.30908C260.428 8.60205 260.453 8.88623 260.453 9.16162C260.453 9.54248 260.4 9.88232 260.294 10.1812C260.189 10.48 260.034 10.7158 259.828 10.8887C259.647 11.0439 259.423 11.1553 259.156 11.2227C258.892 11.29 258.572 11.3237 258.194 11.3237L258.317 9.89551C258.589 9.89551 258.828 9.88086 259.033 9.85156C259.238 9.81934 259.399 9.7666 259.516 9.69336C259.634 9.61719 259.692 9.51318 259.692 9.38135C259.692 9.27881 259.664 9.13965 259.609 8.96387C259.556 8.78809 259.49 8.59912 259.411 8.39697C259.332 8.19482 259.253 8.00293 259.174 7.82129L260.162 7.38623ZM258.317 9.89551C258.378 9.89551 258.425 9.91455 258.457 9.95264C258.49 9.98779 258.501 10.0361 258.493 10.0977L258.387 11.1216C258.372 11.2563 258.308 11.3237 258.194 11.3237C258.132 11.3237 258.085 11.3062 258.053 11.271C258.021 11.2329 258.008 11.1831 258.014 11.1216L258.123 10.0977C258.138 9.96289 258.203 9.89551 258.317 9.89551ZM263.748 11.3237C263.271 11.3237 262.884 11.2593 262.588 11.1304C262.292 10.9985 262.074 10.7891 261.933 10.502C261.796 10.2148 261.727 9.83398 261.727 9.35938V4.94287L262.729 4.65283V8.97266C262.729 9.2041 262.755 9.38721 262.808 9.52197C262.861 9.65674 262.969 9.75342 263.133 9.81201C263.297 9.86768 263.543 9.89551 263.871 9.89551L263.748 11.3237ZM263.748 11.3237C263.687 11.3237 263.64 11.3062 263.608 11.271C263.578 11.2329 263.567 11.1831 263.573 11.1216L263.682 10.0977C263.697 9.96289 263.76 9.89551 263.871 9.89551C263.933 9.89551 263.98 9.91455 264.012 9.95264C264.044 9.99072 264.057 10.0391 264.052 10.0977L263.942 11.1216C263.927 11.2563 263.863 11.3237 263.748 11.3237ZM266.183 6.08984L265.511 6.7666L264.843 6.08984L265.511 5.41309L266.183 6.08984ZM267.598 6.08984L266.926 6.7666L266.258 6.08984L266.926 5.41309L267.598 6.08984ZM266.337 6.94238C266.618 6.94238 266.866 7.02881 267.079 7.20166C267.296 7.37158 267.465 7.59277 267.585 7.86523C267.708 8.1377 267.769 8.42627 267.769 8.73096C267.769 8.86865 267.74 9.03564 267.682 9.23193C267.626 9.42529 267.526 9.62012 267.383 9.81641C267.239 10.0098 267.041 10.1724 266.789 10.3042C266.666 10.4712 266.496 10.6191 266.28 10.748C266.063 10.877 265.815 10.9839 265.537 11.0688C265.262 11.1538 264.97 11.2183 264.662 11.2622C264.358 11.3032 264.053 11.3237 263.748 11.3237L263.871 9.89551C263.997 9.89551 264.15 9.89404 264.328 9.89111C264.507 9.88525 264.689 9.87939 264.873 9.87354C265.061 9.86475 265.231 9.85449 265.383 9.84277C265.536 9.83105 265.647 9.81787 265.717 9.80322C266.142 9.74756 266.48 9.64355 266.732 9.49121C266.984 9.33594 267.11 9.17334 267.11 9.00342C267.11 8.88916 267.071 8.77051 266.992 8.64746C266.915 8.52148 266.81 8.41455 266.675 8.32666C266.54 8.23877 266.387 8.19482 266.214 8.19482C266.047 8.19482 265.893 8.2373 265.752 8.32227C265.612 8.40723 265.499 8.51123 265.414 8.63428C265.332 8.75732 265.291 8.87891 265.291 8.99902C265.291 9.08984 265.336 9.1792 265.427 9.26709C265.518 9.35205 265.634 9.43262 265.774 9.50879C265.915 9.58496 266.063 9.65088 266.218 9.70654C266.376 9.75928 266.521 9.79736 266.653 9.8208C266.741 9.83252 266.864 9.84424 267.022 9.85596C267.183 9.86475 267.359 9.87207 267.55 9.87793C267.74 9.88379 267.928 9.88818 268.112 9.89111C268.297 9.89404 268.458 9.89551 268.596 9.89551L268.477 11.3237C268.078 11.3237 267.696 11.2842 267.33 11.2051C266.964 11.123 266.628 11.0132 266.324 10.8755C266.019 10.7349 265.767 10.5752 265.568 10.3965C265.389 10.2412 265.231 10.0903 265.093 9.94385C264.958 9.79736 264.851 9.64209 264.772 9.47803C264.696 9.31396 264.658 9.12646 264.658 8.91553C264.658 8.66357 264.702 8.41895 264.79 8.18164C264.881 7.94434 265.004 7.7334 265.159 7.54883C265.314 7.36133 265.493 7.21338 265.695 7.10498C265.897 6.99658 266.111 6.94238 266.337 6.94238ZM268.477 11.3237C268.412 11.3237 268.364 11.3062 268.332 11.271C268.303 11.2329 268.291 11.1831 268.297 11.1216L268.407 10.0977C268.424 9.96289 268.487 9.89551 268.596 9.89551C268.66 9.89551 268.708 9.91455 268.741 9.95264C268.773 9.99072 268.785 10.0391 268.776 10.0977L268.67 11.1216C268.653 11.2563 268.588 11.3237 268.477 11.3237ZM263.871 9.89551C263.933 9.89551 263.98 9.91455 264.012 9.95264C264.044 9.98779 264.056 10.0361 264.047 10.0977L263.942 11.1216C263.927 11.2563 263.863 11.3237 263.748 11.3237C263.687 11.3237 263.64 11.3062 263.608 11.271C263.576 11.2329 263.562 11.1831 263.568 11.1216L263.678 10.0977C263.693 9.96289 263.757 9.89551 263.871 9.89551ZM270.96 7.01514L270.222 7.7666L269.479 7.01074L270.222 6.26807L270.96 7.01514ZM270.613 8.00586V9.03418C270.613 9.27441 270.658 9.45605 270.749 9.5791C270.843 9.70215 270.98 9.78564 271.162 9.82959C271.344 9.87354 271.566 9.89551 271.83 9.89551L271.707 11.3237C271.429 11.3237 271.166 11.2842 270.92 11.2051C270.677 11.126 270.474 10.9897 270.309 10.7964C270.148 10.6001 270.046 10.3291 270.002 9.9834L270.27 10.0054C270.229 10.3569 270.135 10.6279 269.989 10.8184C269.842 11.0088 269.643 11.1406 269.391 11.2139C269.142 11.2871 268.837 11.3237 268.477 11.3237L268.6 9.89551C268.867 9.89551 269.091 9.87354 269.272 9.82959C269.454 9.78564 269.59 9.70215 269.681 9.5791C269.775 9.45605 269.822 9.27441 269.822 9.03418V8.00586H270.613ZM271.707 11.3237C271.645 11.3237 271.599 11.3062 271.566 11.271C271.537 11.2329 271.525 11.1831 271.531 11.1216L271.641 10.0977C271.656 9.96289 271.719 9.89551 271.83 9.89551C271.891 9.89551 271.938 9.91455 271.971 9.95264C272.003 9.99072 272.016 10.0391 272.01 10.0977L271.9 11.1216C271.886 11.2563 271.821 11.3237 271.707 11.3237ZM268.477 11.3237C268.415 11.3237 268.369 11.3062 268.336 11.271C268.304 11.2329 268.291 11.1831 268.297 11.1216L268.407 10.0977C268.424 9.96289 268.489 9.89551 268.6 9.89551C268.661 9.89551 268.708 9.91455 268.741 9.95264C268.773 9.99072 268.785 10.0391 268.776 10.0977L268.67 11.1216C268.656 11.2563 268.591 11.3237 268.477 11.3237ZM273.974 4.65283V8.76611C273.974 9.26709 273.907 9.71387 273.772 10.1064C273.641 10.4961 273.434 10.7861 273.153 10.9766C272.986 11.0938 272.782 11.1816 272.542 11.2402C272.305 11.2959 272.028 11.3237 271.711 11.3237L271.834 9.89551C272.104 9.89551 272.322 9.87354 272.489 9.82959C272.656 9.78564 272.779 9.70801 272.858 9.59668C272.937 9.48242 272.977 9.32129 272.977 9.11328V4.94287L273.974 4.65283ZM271.711 11.3237C271.65 11.3237 271.603 11.3062 271.571 11.271C271.538 11.2329 271.525 11.1831 271.531 11.1216L271.641 10.0977C271.659 9.96289 271.723 9.89551 271.834 9.89551C271.896 9.89551 271.943 9.91455 271.975 9.95264C272.007 9.99072 272.019 10.0391 272.01 10.0977L271.905 11.1216C271.89 11.2563 271.826 11.3237 271.711 11.3237ZM275.368 4.94287L276.37 4.65283V10.6338L275.649 11.3237H275.368V4.94287ZM280.742 10.6118C280.429 10.6118 280.163 10.5518 279.947 10.4316C279.733 10.3086 279.572 10.1372 279.463 9.91748C279.355 9.69775 279.301 9.44287 279.301 9.15283C279.301 8.9126 279.35 8.68848 279.45 8.48047C279.553 8.27246 279.709 8.0791 279.92 7.90039C280.134 7.72168 280.408 7.55615 280.742 7.40381C281.076 7.25146 281.477 7.11084 281.946 6.98193V8.02344C281.671 8.09668 281.414 8.17139 281.177 8.24756C280.943 8.3208 280.738 8.39697 280.562 8.47607C280.386 8.55518 280.248 8.64014 280.149 8.73096C280.052 8.81885 280.004 8.9126 280.004 9.01221C280.004 9.11475 280.07 9.19971 280.202 9.26709C280.333 9.33447 280.518 9.36816 280.755 9.36816C280.975 9.36816 281.179 9.34033 281.366 9.28467C281.554 9.229 281.71 9.15576 281.836 9.06494L282.043 9.79004C281.896 10.0303 281.716 10.228 281.502 10.3833C281.291 10.5356 281.038 10.6118 280.742 10.6118ZM283.678 11.3237C282.963 11.3237 282.446 11.1743 282.126 10.8755C281.81 10.5767 281.652 10.0713 281.652 9.35938V6.70508L282.645 6.50732V8.97266C282.645 9.2041 282.671 9.38721 282.724 9.52197C282.78 9.65674 282.89 9.75342 283.054 9.81201C283.221 9.86768 283.471 9.89551 283.805 9.89551L283.678 11.3237ZM283.682 11.3237C283.62 11.3237 283.574 11.3062 283.541 11.271C283.509 11.2329 283.496 11.1831 283.502 11.1216L283.612 10.0977C283.629 9.96289 283.694 9.89551 283.805 9.89551C283.867 9.89551 283.913 9.91455 283.946 9.95264C283.978 9.99072 283.991 10.0391 283.985 10.0977L283.871 11.1216C283.859 11.2563 283.796 11.3237 283.682 11.3237ZM285.387 12.4795L284.719 13.1519L284.051 12.4795L284.719 11.8027L285.387 12.4795ZM286.802 12.4795L286.13 13.1519L285.462 12.4795L286.13 11.8027L286.802 12.4795ZM285.818 8.00586V9.03418C285.818 9.27441 285.863 9.45605 285.954 9.5791C286.048 9.70215 286.185 9.78564 286.367 9.82959C286.549 9.87354 286.771 9.89551 287.035 9.89551L286.912 11.3237C286.634 11.3237 286.371 11.2842 286.125 11.2051C285.882 11.126 285.679 10.9897 285.515 10.7964C285.353 10.6001 285.251 10.3291 285.207 9.9834L285.475 10.0054C285.434 10.3569 285.34 10.6279 285.194 10.8184C285.047 11.0088 284.848 11.1406 284.596 11.2139C284.347 11.2871 284.042 11.3237 283.682 11.3237L283.805 9.89551C284.072 9.89551 284.296 9.87354 284.477 9.82959C284.659 9.78564 284.795 9.70215 284.886 9.5791C284.98 9.45605 285.027 9.27441 285.027 9.03418V8.00586H285.818ZM286.912 11.3237C286.85 11.3237 286.804 11.3062 286.771 11.271C286.742 11.2329 286.73 11.1831 286.736 11.1216L286.846 10.0977C286.861 9.96289 286.924 9.89551 287.035 9.89551C287.097 9.89551 287.143 9.91455 287.176 9.95264C287.208 9.99072 287.221 10.0391 287.215 10.0977L287.105 11.1216C287.091 11.2563 287.026 11.3237 286.912 11.3237ZM283.682 11.3237C283.62 11.3237 283.574 11.3062 283.541 11.271C283.509 11.2329 283.496 11.1831 283.502 11.1216L283.612 10.0977C283.629 9.96289 283.694 9.89551 283.805 9.89551C283.867 9.89551 283.913 9.91455 283.946 9.95264C283.978 9.99072 283.99 10.0391 283.981 10.0977L283.875 11.1216C283.861 11.2563 283.796 11.3237 283.682 11.3237ZM289.048 6.01514L288.309 6.7666L287.567 6.01074L288.309 5.26807L289.048 6.01514ZM288.885 7.38623C288.979 7.70557 289.051 8.01318 289.1 8.30908C289.15 8.60205 289.175 8.88623 289.175 9.16162C289.175 9.54248 289.122 9.88232 289.017 10.1812C288.911 10.48 288.756 10.7158 288.551 10.8887C288.37 11.0439 288.145 11.1553 287.879 11.2227C287.615 11.29 287.294 11.3237 286.916 11.3237L287.039 9.89551C287.312 9.89551 287.551 9.88086 287.756 9.85156C287.961 9.81934 288.122 9.7666 288.239 9.69336C288.356 9.61719 288.415 9.51318 288.415 9.38135C288.415 9.27881 288.387 9.13965 288.331 8.96387C288.279 8.78809 288.213 8.59912 288.134 8.39697C288.055 8.19482 287.975 8.00293 287.896 7.82129L288.885 7.38623ZM287.039 9.89551C287.101 9.89551 287.148 9.91455 287.18 9.95264C287.212 9.98779 287.224 10.0361 287.215 10.0977L287.11 11.1216C287.095 11.2563 287.031 11.3237 286.916 11.3237C286.855 11.3237 286.808 11.3062 286.776 11.271C286.744 11.2329 286.73 11.1831 286.736 11.1216L286.846 10.0977C286.861 9.96289 286.925 9.89551 287.039 9.89551ZM292.7 10.0933C292.7 10.5942 292.638 11.0425 292.515 11.438C292.392 11.8306 292.225 12.1646 292.014 12.4399C291.806 12.7153 291.57 12.9248 291.307 13.0684C291.046 13.2119 290.776 13.2837 290.498 13.2837C290.398 13.2837 290.28 13.2559 290.142 13.2002C290.004 13.1475 289.864 13.0786 289.72 12.9937C289.574 12.9087 289.437 12.8193 289.311 12.7256V11.8994C289.42 11.9258 289.537 11.9448 289.663 11.9565C289.786 11.9712 289.924 11.9785 290.076 11.9785C290.489 11.9785 290.833 11.8965 291.109 11.7324C291.387 11.5684 291.595 11.3677 291.733 11.1304C291.873 10.8901 291.944 10.6572 291.944 10.4316C291.944 10.2881 291.916 10.124 291.86 9.93945C291.807 9.75488 291.728 9.53516 291.623 9.28027C291.52 9.02246 291.394 8.71777 291.245 8.36621L292.251 7.90918C292.386 8.26367 292.495 8.63135 292.577 9.01221C292.659 9.39014 292.7 9.75049 292.7 10.0933ZM295.978 11.3237L296.101 9.89551H297.371C297.749 9.89551 298.023 9.86035 298.193 9.79004C298.363 9.7168 298.448 9.62158 298.448 9.50439C298.448 9.41943 298.414 9.33008 298.347 9.23633C298.282 9.14258 298.166 9.02979 297.999 8.89795C297.832 8.76611 297.601 8.60205 297.305 8.40576C297.009 8.20654 296.631 7.95898 296.171 7.66309C296.186 7.38477 296.211 7.12109 296.246 6.87207C296.281 6.62305 296.324 6.41504 296.373 6.24805L299.902 4.59131L299.674 5.87451L296.769 7.18848L297.037 6.88086C297.409 7.13574 297.728 7.36572 297.995 7.5708C298.265 7.77588 298.486 7.97217 298.659 8.15967C298.831 8.34424 298.96 8.5376 299.045 8.73975C299.13 8.93896 299.173 9.16162 299.173 9.40771C299.173 9.74756 299.114 10.0435 298.997 10.2954C298.88 10.5474 298.713 10.7539 298.496 10.915C298.314 11.0498 298.095 11.1523 297.837 11.2227C297.582 11.29 297.301 11.3237 296.993 11.3237H295.978ZM296.101 9.89551C296.162 9.89551 296.209 9.91455 296.242 9.95264C296.274 9.98779 296.286 10.0361 296.277 10.0977L296.171 11.1216C296.157 11.2563 296.092 11.3237 295.978 11.3237C295.916 11.3237 295.87 11.3062 295.837 11.271C295.805 11.2329 295.792 11.1831 295.798 11.1216L295.908 10.0977C295.922 9.96289 295.987 9.89551 296.101 9.89551ZM295.978 11.3237C295.5 11.3237 295.114 11.2593 294.818 11.1304C294.522 10.9985 294.304 10.7891 294.163 10.502C294.025 10.2148 293.956 9.83398 293.956 9.35938V4.94287L294.958 4.65283V8.97266C294.958 9.2041 294.985 9.38721 295.037 9.52197C295.09 9.65674 295.199 9.75342 295.363 9.81201C295.527 9.86768 295.773 9.89551 296.101 9.89551L295.978 11.3237ZM295.978 11.3237C295.916 11.3237 295.87 11.3062 295.837 11.271C295.808 11.2329 295.796 11.1831 295.802 11.1216L295.912 10.0977C295.927 9.96289 295.99 9.89551 296.101 9.89551C296.162 9.89551 296.209 9.91455 296.242 9.95264C296.274 9.99072 296.287 10.0391 296.281 10.0977L296.171 11.1216C296.157 11.2563 296.092 11.3237 295.978 11.3237ZM307.307 4.65283V10.2998C307.307 10.8799 307.24 11.375 307.105 11.7852C306.97 12.1982 306.764 12.519 306.485 12.7476C306.066 13.0991 305.494 13.2749 304.767 13.2749C304.254 13.2749 303.824 13.1753 303.475 12.9761C303.129 12.7798 302.867 12.4985 302.688 12.1323C302.513 11.769 302.425 11.3369 302.425 10.8359C302.425 10.5371 302.46 10.2207 302.53 9.88672C302.603 9.5498 302.694 9.23486 302.803 8.94189L303.475 8.94629C303.39 9.21289 303.323 9.4751 303.273 9.73291C303.223 9.99072 303.198 10.2266 303.198 10.4404C303.198 10.9209 303.336 11.2812 303.611 11.5215C303.887 11.7617 304.31 11.8818 304.881 11.8818C305.16 11.8818 305.406 11.8467 305.62 11.7764C305.833 11.7061 306 11.605 306.12 11.4731C306.244 11.3413 306.305 11.186 306.305 11.0073V4.94287L307.307 4.65283ZM310.717 11.3237C310.24 11.3237 309.853 11.2593 309.557 11.1304C309.261 10.9985 309.043 10.7891 308.902 10.502C308.765 10.2148 308.696 9.83398 308.696 9.35938V4.94287L309.698 4.65283V8.97266C309.698 9.2041 309.724 9.38721 309.777 9.52197C309.829 9.65674 309.938 9.75342 310.102 9.81201C310.266 9.86768 310.512 9.89551 310.84 9.89551L310.717 11.3237ZM310.717 11.3237C310.656 11.3237 310.609 11.3062 310.577 11.271C310.547 11.2329 310.536 11.1831 310.541 11.1216L310.651 10.0977C310.666 9.96289 310.729 9.89551 310.84 9.89551C310.902 9.89551 310.949 9.91455 310.981 9.95264C311.013 9.99072 311.026 10.0391 311.02 10.0977L310.911 11.1216C310.896 11.2563 310.831 11.3237 310.717 11.3237ZM317.076 8.08057C317.152 8.32959 317.211 8.57275 317.252 8.81006C317.293 9.04443 317.313 9.27148 317.313 9.49121C317.307 9.79883 317.268 10.0698 317.195 10.3042C317.124 10.5356 317.022 10.729 316.887 10.8843C316.635 11.1772 316.262 11.3237 315.766 11.3237C315.4 11.3237 315.113 11.2373 314.905 11.0645C314.7 10.8916 314.561 10.6396 314.488 10.3086L314.822 10.3218C314.757 10.6382 314.608 10.8843 314.373 11.0601C314.142 11.2358 313.839 11.3237 313.464 11.3237C313.051 11.3237 312.736 11.2402 312.519 11.0732C312.302 10.9062 312.169 10.6748 312.119 10.3789L312.361 10.3921C312.276 10.6968 312.116 10.9282 311.882 11.0864C311.647 11.2446 311.259 11.3237 310.717 11.3237L310.84 9.89551C311.151 9.89551 311.394 9.875 311.57 9.83398C311.745 9.79004 311.869 9.71826 311.939 9.61865C312.012 9.51611 312.049 9.37695 312.049 9.20117V8.55078H312.813V9.20117C312.813 9.44727 312.87 9.62451 312.985 9.73291C313.102 9.83838 313.288 9.89111 313.543 9.89111C313.801 9.89111 313.985 9.83838 314.097 9.73291C314.211 9.62451 314.268 9.44727 314.268 9.20117V8.55078H315.033V9.20117C315.033 9.46484 315.085 9.65527 315.191 9.77246C315.296 9.88965 315.51 9.94824 315.832 9.94824C316.049 9.94824 316.226 9.92188 316.364 9.86914C316.505 9.81348 316.575 9.71533 316.575 9.57471C316.575 9.45459 316.538 9.29346 316.465 9.09131C316.395 8.88916 316.295 8.6665 316.166 8.42334L317.076 8.08057ZM310.84 9.89551C310.902 9.89551 310.949 9.91455 310.981 9.95264C311.013 9.98779 311.025 10.0361 311.016 10.0977L310.911 11.1216C310.896 11.2563 310.831 11.3237 310.717 11.3237C310.656 11.3237 310.609 11.3062 310.577 11.271C310.544 11.2329 310.531 11.1831 310.537 11.1216L310.647 10.0977C310.661 9.96289 310.726 9.89551 310.84 9.89551ZM320.561 10.0933C320.561 10.5942 320.499 11.0425 320.376 11.438C320.253 11.8306 320.086 12.1646 319.875 12.4399C319.667 12.7153 319.432 12.9248 319.168 13.0684C318.907 13.2119 318.638 13.2837 318.359 13.2837C318.26 13.2837 318.141 13.2559 318.003 13.2002C317.866 13.1475 317.725 13.0786 317.581 12.9937C317.435 12.9087 317.299 12.8193 317.173 12.7256V11.8994C317.281 11.9258 317.398 11.9448 317.524 11.9565C317.647 11.9712 317.785 11.9785 317.937 11.9785C318.35 11.9785 318.695 11.8965 318.97 11.7324C319.248 11.5684 319.456 11.3677 319.594 11.1304C319.735 10.8901 319.805 10.6572 319.805 10.4316C319.805 10.2881 319.777 10.124 319.722 9.93945C319.669 9.75488 319.59 9.53516 319.484 9.28027C319.382 9.02246 319.256 8.71777 319.106 8.36621L320.113 7.90918C320.247 8.26367 320.356 8.63135 320.438 9.01221C320.52 9.39014 320.561 9.75049 320.561 10.0933ZM321.818 4.94287L322.82 4.65283V10.6338L322.099 11.3237H321.818V4.94287Z" fill="#9ABCF9"/>
<path d="M82.2501 9H109.25" stroke="#C5D9FC" stroke-width="1.5" stroke-linecap="round"/>
<path d="M201.75 9L228.75 8.875" stroke="#C5D9FC" stroke-width="1.5" stroke-linecap="round"/>
</svg>
